<svg width="20" height="18" viewBox="0 0 20 18" fill="none" xmlns="http://www.w3.org/2000/svg">
    <path d="M19.2076 17.9792H13.541C13.3531 17.9792 13.1729 17.9046 13.0401 17.7717C12.9073 17.6389 12.8326 17.4587 12.8326 17.2709V11.6042C12.8326 11.4163 12.758 11.2362 12.6252 11.1033C12.4923 10.9705 12.3122 10.8959 12.1243 10.8959H7.87431C7.68645 10.8959 7.50628 10.9705 7.37344 11.1033C7.2406 11.2362 7.16598 11.4163 7.16598 11.6042V17.2709C7.16598 17.4587 7.09135 17.6389 6.95851 17.7717C6.82567 17.9046 6.6455 17.9792 6.45764 17.9792H0.790975C0.603113 17.9792 0.422946 17.9046 0.290108 17.7717C0.15727 17.6389 0.0826416 17.4587 0.0826416 17.2709V9.08077C0.161444 9.0272 0.253084 8.9971 0.324803 8.93246L9.99931 0.403687L19.6831 8.94353C19.7513 9.00462 19.8407 9.03207 19.916 9.0852V17.2709C19.916 17.4587 19.8413 17.6389 19.7085 17.7717C19.5757 17.9046 19.3955 17.9792 19.2076 17.9792Z" fill="white" />
</svg>