<svg width="165" height="35" viewBox="0 0 165 35" fill="none" xmlns="http://www.w3.org/2000/svg">
    <path d="M13.0868 33.045C11.1068 33.045 9.20176 32.775 7.37176 32.235C5.57176 31.665 4.10175 30.885 2.96175 29.895C1.82175 28.875 1.25175 27.72 1.25175 26.43C1.25175 25.2 1.62675 24.225 2.37675 23.505C3.12675 22.785 4.07175 22.425 5.21176 22.425C5.96176 22.425 6.60676 22.53 7.14675 22.74C7.71676 22.92 8.33176 23.19 8.99176 23.55C9.47176 23.79 9.87676 23.985 10.2068 24.135C10.5668 24.255 10.9418 24.315 11.3318 24.315C12.3218 24.315 12.8168 23.925 12.8168 23.145C12.8168 22.845 12.6068 22.59 12.1868 22.38C11.7668 22.14 11.0618 21.825 10.0718 21.435C8.30176 20.745 6.86175 20.07 5.75175 19.41C4.04175 18.39 2.85675 17.28 2.19675 16.08C1.56675 14.88 1.25175 13.38 1.25175 11.58C1.25175 9.84 1.80675 8.205 2.91675 6.675C4.02676 5.115 5.54176 3.87 7.46175 2.94C9.38176 2.01 11.4818 1.545 13.7618 1.545C15.9818 1.545 18.0068 1.89 19.8368 2.58C21.6968 3.24 23.1518 4.17 24.2018 5.37C25.2818 6.54 25.8218 7.845 25.8218 9.285C25.8218 10.935 25.3268 12.18 24.3368 13.02C23.3768 13.83 22.2968 14.235 21.0968 14.235C20.1068 14.235 19.3568 14.175 18.8468 14.055C18.3668 13.935 17.8868 13.77 17.4068 13.56C17.0168 13.41 16.6868 13.305 16.4168 13.245C16.1468 13.155 15.7718 13.11 15.2918 13.11C14.9018 13.11 14.5268 13.245 14.1668 13.515C13.8368 13.755 13.6718 14.1 13.6718 14.55C13.6718 14.88 13.8668 15.165 14.2568 15.405C14.6468 15.615 15.0968 15.81 15.6068 15.99C16.1168 16.17 16.4768 16.305 16.6868 16.395C19.4768 17.415 21.5318 18.585 22.8518 19.905C24.1718 21.195 24.8318 22.875 24.8318 24.945C24.8318 27.495 23.7968 29.49 21.7268 30.93C19.6868 32.34 16.8068 33.045 13.0868 33.045ZM41.5216 33.045C38.7916 33.075 36.2566 32.4 33.9166 31.02C31.6066 29.64 29.7466 27.75 28.3366 25.35C26.9566 22.92 26.2366 20.235 26.1766 17.295C26.1466 14.475 26.8066 11.865 28.1566 9.465C29.5066 7.065 31.3666 5.16 33.7366 3.75C36.1066 2.31 38.7016 1.59 41.5216 1.59C44.2816 1.56 46.8316 2.25 49.1716 3.66C51.5416 5.07 53.4166 7.005 54.7966 9.465C56.1766 11.925 56.8666 14.64 56.8666 17.61C56.8666 20.4 56.1766 22.965 54.7966 25.305C53.4166 27.645 51.5416 29.505 49.1716 30.885C46.8316 32.265 44.2816 32.985 41.5216 33.045ZM41.6566 24.27C43.0366 24.27 44.2066 23.775 45.1666 22.785C46.1566 21.795 46.6366 20.505 46.6066 18.915C46.6066 17.295 46.1266 15.99 45.1666 15C44.2066 14.01 43.0366 13.515 41.6566 13.515C40.2766 13.515 39.1066 14.01 38.1466 15C37.1866 15.99 36.7066 17.295 36.7066 18.915C36.7066 20.505 37.1866 21.795 38.1466 22.785C39.1066 23.775 40.2766 24.27 41.6566 24.27ZM74.5012 33C71.1412 33 68.2612 32.25 65.8612 30.75C63.4612 29.22 61.6462 27.195 60.4162 24.675C59.2162 22.125 58.6162 19.35 58.6162 16.35C58.6162 12.21 59.0962 8.7 60.0562 5.82C61.0162 2.94 62.8912 1.5 65.6812 1.5C67.8712 1.5 69.4462 2.145 70.4062 3.435C71.3662 4.725 71.8462 6.315 71.8462 8.205C71.8462 9.465 71.7262 10.935 71.4862 12.615C71.2462 14.235 71.1262 15.6 71.1262 16.71C71.1262 18.18 71.3812 19.44 71.8912 20.49C72.4012 21.54 73.2712 22.065 74.5012 22.065C75.7612 22.065 76.6312 21.54 77.1112 20.49C77.6212 19.44 77.8762 18.18 77.8762 16.71C77.8762 15.6 77.7562 14.235 77.5162 12.615C77.2762 10.935 77.1562 9.465 77.1562 8.205C77.1562 6.315 77.6362 4.725 78.5962 3.435C79.5562 2.145 81.1312 1.5 83.3212 1.5C86.1112 1.5 87.9862 2.94 88.9462 5.82C89.9062 8.7 90.3862 12.21 90.3862 16.35C90.3862 19.35 89.7712 22.125 88.5412 24.675C87.3412 27.195 85.5412 29.22 83.1412 30.75C80.7412 32.25 77.8612 33 74.5012 33ZM98.0159 33.045C95.5559 33.045 93.8759 31.635 92.9759 28.815C92.1059 25.995 91.6709 22.395 91.6709 18.015C91.6709 15.165 92.1809 12.495 93.2009 10.005C94.2509 7.485 95.8409 5.46 97.9709 3.93C100.101 2.37 102.696 1.59 105.756 1.59C108.216 1.59 110.451 2.115 112.461 3.165C114.471 4.185 116.061 5.655 117.231 7.575C118.431 9.495 119.031 11.715 119.031 14.235C119.031 17.145 118.446 19.59 117.276 21.57C116.106 23.55 114.591 25.02 112.731 25.98C110.871 26.94 108.906 27.42 106.836 27.42C105.156 27.42 103.611 27.135 102.201 26.565C102.381 27.525 102.471 28.26 102.471 28.77C102.471 31.62 100.986 33.045 98.0159 33.045ZM106.206 20.445C107.286 20.445 108.216 20.055 108.996 19.275C109.806 18.465 110.211 17.535 110.211 16.485C110.211 15.405 109.806 14.475 108.996 13.695C108.216 12.885 107.286 12.48 106.206 12.48C105.156 12.48 104.226 12.885 103.416 13.695C102.606 14.475 102.201 15.405 102.201 16.485C102.201 17.535 102.606 18.465 103.416 19.275C104.226 20.055 105.156 20.445 106.206 20.445ZM133.109 24.855C134.639 25.035 135.824 25.425 136.664 26.025C137.534 26.595 137.969 27.51 137.969 28.77C137.969 30.03 137.519 30.96 136.619 31.56C135.749 32.16 134.699 32.535 133.469 32.685C132.239 32.805 130.649 32.865 128.699 32.865C126.779 32.865 125.204 32.805 123.974 32.685C122.744 32.535 121.694 32.16 120.824 31.56C119.954 30.96 119.519 30.03 119.519 28.77C119.519 27.54 119.924 26.64 120.734 26.07C121.574 25.47 122.714 25.065 124.154 24.855C124.004 23.115 123.929 20.625 123.929 17.385C123.929 14.475 123.989 12.135 124.109 10.365C122.369 10.185 121.004 9.765 120.014 9.105C119.024 8.445 118.529 7.41 118.529 6C118.529 4.62 119.009 3.6 119.969 2.94C120.929 2.28 122.084 1.875 123.434 1.725C124.784 1.575 126.524 1.5 128.654 1.5C130.784 1.5 132.524 1.575 133.874 1.725C135.224 1.875 136.379 2.28 137.339 2.94C138.329 3.6 138.824 4.62 138.824 6C138.824 7.41 138.314 8.445 137.294 9.105C136.304 9.765 134.924 10.185 133.154 10.365C133.304 12.015 133.379 14.355 133.379 17.385C133.379 20.295 133.289 22.785 133.109 24.855ZM161.207 25.8C162.647 26.25 163.367 27.195 163.367 28.635C163.367 29.985 162.677 31.05 161.297 31.83C159.917 32.61 157.532 33 154.142 33C149.912 33 146.282 31.98 143.252 29.94C140.252 27.9 138.752 23.85 138.752 17.79C138.752 14.73 139.277 11.97 140.327 9.51C141.377 7.05 142.937 5.1 145.007 3.66C147.107 2.22 149.672 1.5 152.702 1.5C156.752 1.5 159.602 2.13 161.252 3.39C162.902 4.62 163.727 6.135 163.727 7.935C163.727 8.775 163.517 9.555 163.097 10.275C162.677 10.965 162.047 11.505 161.207 11.895C160.487 12.255 159.557 12.435 158.417 12.435L157.202 12.39C156.962 12.36 156.617 12.345 156.167 12.345C154.607 12.345 153.377 12.63 152.477 13.2C151.577 13.74 150.962 14.58 150.632 15.72C151.892 15.66 153.032 15.63 154.052 15.63C157.082 15.63 159.047 15.72 159.947 15.9C160.967 16.11 161.747 16.515 162.287 17.115C162.857 17.715 163.142 18.42 163.142 19.23C163.142 20.04 162.872 20.745 162.332 21.345C161.792 21.915 160.982 22.305 159.902 22.515C159.062 22.695 157.022 22.785 153.782 22.785C152.462 22.785 151.532 22.77 150.992 22.74C151.922 24.72 153.662 25.71 156.212 25.71C156.362 25.71 156.707 25.68 157.247 25.62C157.967 25.56 158.582 25.53 159.092 25.53C159.962 25.53 160.667 25.62 161.207 25.8Z" fill="#F49149" fill-opacity="0.6" />
    <path d="M7.37175 32.235L7.06986 33.1883L7.07927 33.1913L7.08874 33.1941L7.37175 32.235ZM2.96175 29.895L2.29496 30.6402L2.30048 30.6452L2.30607 30.65L2.96175 29.895ZM2.37675 23.505L1.68422 22.7836L2.37675 23.505ZM7.14676 22.74L6.78431 23.672L6.81462 23.6838L6.84562 23.6936L7.14676 22.74ZM8.99176 23.55L8.5129 24.4279L8.52858 24.4364L8.54454 24.4444L8.99176 23.55ZM10.2068 24.135L9.79295 25.0454L9.84073 25.0671L9.89053 25.0837L10.2068 24.135ZM12.1868 22.38L11.6906 23.2482L11.7147 23.262L11.7395 23.2744L12.1868 22.38ZM10.0718 21.435L10.4383 20.5046L10.435 20.5033L10.0718 21.435ZM5.75175 19.41L5.23948 20.2688L5.24068 20.2695L5.75175 19.41ZM2.19675 16.08L1.31136 16.5448L1.31586 16.5534L1.32054 16.5619L2.19675 16.08ZM2.91676 6.675L3.72621 7.26225L3.73154 7.25475L2.91676 6.675ZM7.46175 2.94L7.02583 2.04002L7.46175 2.94ZM19.8368 2.58L19.484 3.5157L19.4931 3.51915L19.5023 3.52242L19.8368 2.58ZM24.2018 5.37L23.4492 6.0285L23.4579 6.03851L23.467 6.04828L24.2018 5.37ZM24.3368 13.02L24.9816 13.7843L24.9837 13.7825L24.3368 13.02ZM18.8468 14.055L18.6042 15.0252L18.6177 15.0284L18.8468 14.055ZM17.4068 13.56L17.8076 12.6438L17.7868 12.6348L17.7657 12.6267L17.4068 13.56ZM16.4168 13.245L16.1005 14.1937L16.1495 14.21L16.1998 14.2212L16.4168 13.245ZM14.1668 13.515L14.7549 14.3237L14.7609 14.3194L14.7668 14.315L14.1668 13.515ZM14.2568 15.405L13.7327 16.2567L13.7572 16.2718L13.7827 16.2855L14.2568 15.405ZM15.6068 15.99L15.9396 15.047L15.6068 15.99ZM16.6868 16.395L16.2928 17.3141L16.3178 17.3249L16.3434 17.3342L16.6868 16.395ZM22.8518 19.905L22.1446 20.6122L22.1528 20.6202L22.8518 19.905ZM21.7268 30.93L22.2953 31.7526L22.2978 31.7509L21.7268 30.93ZM13.0868 32.045C11.1989 32.045 9.38945 31.7878 7.65477 31.2759L7.08874 33.1941C9.01406 33.7622 11.0146 34.045 13.0868 34.045V32.045ZM7.67365 31.2817C5.97231 30.7429 4.63192 30.021 3.61744 29.14L2.30607 30.65C3.57159 31.749 5.1712 32.5871 7.06986 33.1883L7.67365 31.2817ZM3.62855 29.1498C2.65747 28.2809 2.25175 27.3824 2.25175 26.43H0.251755C0.251755 28.0576 0.986034 29.4691 2.29496 30.6402L3.62855 29.1498ZM2.25175 26.43C2.25175 25.4184 2.5515 24.7235 3.06929 24.2264L1.68422 22.7836C0.702011 23.7265 0.251755 24.9816 0.251755 26.43H2.25175ZM3.06929 24.2264C3.6143 23.7032 4.30268 23.425 5.21175 23.425V21.425C3.84083 21.425 2.63921 21.8668 1.68422 22.7836L3.06929 24.2264ZM5.21175 23.425C5.87252 23.425 6.38834 23.518 6.78431 23.672L7.5092 21.808C6.82517 21.542 6.05099 21.425 5.21175 21.425V23.425ZM6.84562 23.6936C7.34074 23.8499 7.89579 24.0913 8.5129 24.4279L9.47061 22.6721C8.76772 22.2887 8.09277 21.9901 7.44789 21.7864L6.84562 23.6936ZM8.54454 24.4444C9.03089 24.6876 9.44779 24.8885 9.79295 25.0454L10.6206 23.2246C10.3057 23.0815 9.91262 22.8924 9.43897 22.6556L8.54454 24.4444ZM9.89053 25.0837C10.3553 25.2386 10.8373 25.315 11.3318 25.315V23.315C11.0462 23.315 10.7782 23.2714 10.523 23.1863L9.89053 25.0837ZM11.3318 25.315C11.931 25.315 12.5649 25.2015 13.0644 24.808C13.6093 24.3787 13.8168 23.761 13.8168 23.145H11.8168C11.8168 23.2358 11.8023 23.2689 11.803 23.2672C11.8063 23.2595 11.8168 23.2447 11.8266 23.237C11.8311 23.2335 11.7225 23.315 11.3318 23.315V25.315ZM13.8168 23.145C13.8168 22.2779 13.1828 21.76 12.634 21.4856L11.7395 23.2744C11.803 23.3061 11.844 23.3324 11.8685 23.3505C11.893 23.3686 11.8956 23.3745 11.8873 23.3645C11.8781 23.3533 11.8587 23.3261 11.8421 23.2823C11.8251 23.2373 11.8168 23.1895 11.8168 23.145H13.8168ZM12.6829 21.5118C12.1958 21.2334 11.433 20.8965 10.4383 20.5046L9.70523 22.3654C10.6905 22.7535 11.3377 23.0466 11.6906 23.2482L12.6829 21.5118ZM10.435 20.5033C8.69467 19.8249 7.30924 19.1727 6.26283 18.5505L5.24068 20.2695C6.41427 20.9673 7.90884 21.6651 9.70855 22.3667L10.435 20.5033ZM6.26403 18.5512C4.64169 17.5835 3.61701 16.5872 3.07297 15.5981L1.32054 16.5619C2.0965 17.9728 3.44182 19.1965 5.23948 20.2688L6.26403 18.5512ZM3.08215 15.6152C2.54803 14.5978 2.25175 13.2691 2.25175 11.58H0.251755C0.251755 13.4909 0.58548 15.1622 1.31136 16.5448L3.08215 15.6152ZM2.25175 11.58C2.25175 10.0694 2.72876 8.63704 3.72618 7.26223L2.10733 6.08777C0.884747 7.77296 0.251755 9.61062 0.251755 11.58H2.25175ZM3.73154 7.25475C4.73342 5.84672 6.11126 4.70528 7.89768 3.83998L7.02583 2.04002C4.97225 3.03472 3.3201 4.38328 2.10196 6.09524L3.73154 7.25475ZM7.89768 3.83998C9.67256 2.98027 11.6222 2.545 13.7618 2.545V0.544998C11.3414 0.544998 9.09095 1.03972 7.02583 2.04002L7.89768 3.83998ZM13.7618 2.545C15.8774 2.545 17.7809 2.87355 19.484 3.5157L20.1896 1.6443C18.2326 0.906443 16.0861 0.544998 13.7618 0.544998V2.545ZM19.5023 3.52242C21.2389 4.13862 22.5358 4.98463 23.4492 6.0285L24.9543 4.71149C23.7677 3.35536 22.1546 2.34138 20.1712 1.63757L19.5023 3.52242ZM23.467 6.04828C24.396 7.05472 24.8218 8.12379 24.8218 9.285H26.8218C26.8218 7.56621 26.1675 6.02527 24.9366 4.69172L23.467 6.04828ZM24.8218 9.285C24.8218 10.7272 24.3978 11.6568 23.6898 12.2575L24.9837 13.7825C26.2558 12.7032 26.8218 11.1428 26.8218 9.285H24.8218ZM23.6919 12.2557C22.9031 12.9212 22.049 13.235 21.0968 13.235V15.235C22.5445 15.235 23.8504 14.7388 24.9816 13.7843L23.6919 12.2557ZM21.0968 13.235C20.1286 13.235 19.4713 13.1746 19.0758 13.0816L18.6177 15.0284C19.2423 15.1754 20.0849 15.235 21.0968 15.235V13.235ZM19.0893 13.0849C18.6665 12.9792 18.2394 12.8328 17.8076 12.6438L17.0059 14.4762C17.5341 14.7072 18.067 14.8908 18.6042 15.0251L19.0893 13.0849ZM17.7657 12.6267C17.3503 12.4669 16.9698 12.3435 16.6337 12.2688L16.1998 14.2212C16.4037 14.2665 16.6832 14.3531 17.0478 14.4933L17.7657 12.6267ZM16.733 12.2963C16.3147 12.1569 15.8161 12.11 15.2918 12.11V14.11C15.7274 14.11 15.9788 14.1531 16.1005 14.1937L16.733 12.2963ZM15.2918 12.11C14.6531 12.11 14.0721 12.336 13.5668 12.715L14.7668 14.315C14.9814 14.154 15.1504 14.11 15.2918 14.11V12.11ZM13.5786 12.7063C12.9605 13.1558 12.6718 13.8182 12.6718 14.55H14.6718C14.6718 14.4481 14.69 14.4012 14.6976 14.3852C14.7037 14.3726 14.715 14.3528 14.7549 14.3237L13.5786 12.7063ZM12.6718 14.55C12.6718 15.3541 13.174 15.9128 13.7327 16.2567L14.7809 14.5533C14.6682 14.484 14.6403 14.4422 14.6433 14.4466C14.6459 14.4504 14.6543 14.4641 14.6615 14.4868C14.6689 14.5099 14.6718 14.5323 14.6718 14.55H12.6718ZM13.7827 16.2855C14.2267 16.5246 14.7255 16.7394 15.2739 16.933L15.9396 15.047C15.468 14.8806 15.0668 14.7054 14.7309 14.5245L13.7827 16.2855ZM15.2739 16.933C15.7835 17.1128 16.116 17.2383 16.2928 17.3141L17.0807 15.4759C16.8376 15.3717 16.45 15.2272 15.9396 15.047L15.2739 16.933ZM16.3434 17.3342C19.0686 18.3305 20.9706 19.4381 22.1446 20.6121L23.5589 19.1979C22.0929 17.7319 19.8849 16.4995 17.0301 15.4558L16.3434 17.3342ZM22.1528 20.6202C23.2561 21.6984 23.8318 23.1083 23.8318 24.945H25.8318C25.8318 22.6417 25.0874 20.6916 23.5507 19.1898L22.1528 20.6202ZM23.8318 24.945C23.8318 27.1721 22.9534 28.8585 21.1557 30.1091L22.2978 31.7509C24.6401 30.1215 25.8318 27.8179 25.8318 24.945H23.8318ZM21.1582 30.1074C19.3497 31.3574 16.6993 32.045 13.0868 32.045V34.045C16.9142 34.045 20.0238 33.3226 22.2953 31.7526L21.1582 30.1074ZM41.5216 33.045L41.5326 34.045L41.5434 34.0448L41.5216 33.045ZM33.9166 31.02L33.4038 31.8785L33.4087 31.8814L33.9166 31.02ZM28.3366 25.35L27.4671 25.8438L27.4707 25.8502L27.4744 25.8565L28.3366 25.35ZM26.1766 17.295L25.1766 17.3056L25.1768 17.3154L26.1766 17.295ZM28.1566 9.465L29.0282 9.95526H29.0282L28.1566 9.465ZM33.7366 3.75L34.2479 4.60944L34.2559 4.60461L33.7366 3.75ZM41.5216 1.59V2.59006L41.5325 2.58994L41.5216 1.59ZM49.1716 3.66L48.6555 4.51653L48.6603 4.51941L49.1716 3.66ZM54.7966 9.465L53.9245 9.95425L54.7966 9.465ZM54.7966 25.305L55.658 25.813L54.7966 25.305ZM49.1716 30.885L48.6684 30.0208L48.6637 30.0236L49.1716 30.885ZM45.1666 22.785L44.4595 22.0779L44.4541 22.0833L44.4487 22.0889L45.1666 22.785ZM46.6066 18.915H45.6066V18.9244L45.6068 18.9339L46.6066 18.915ZM45.1666 15L44.4487 15.6961L45.1666 15ZM38.1466 15L38.8645 15.6961L38.1466 15ZM41.5107 32.0451C38.9621 32.0731 36.6067 31.4455 34.4246 30.1586L33.4087 31.8814C35.9066 33.3545 38.6212 34.0769 41.5326 34.0449L41.5107 32.0451ZM34.4295 30.1615C32.2687 28.8707 30.5268 27.1039 29.1988 24.8435L27.4744 25.8565C28.9664 28.3961 30.9445 30.4093 33.4038 31.8785L34.4295 30.1615ZM29.2062 24.8562C27.9126 22.5783 27.2332 20.0574 27.1764 17.2746L25.1768 17.3154C25.2401 20.4126 26.0007 23.2617 27.4671 25.8438L29.2062 24.8562ZM27.1766 17.2844C27.1484 14.6353 27.7663 12.1986 29.0282 9.95526L27.2851 8.97474C25.8469 11.5314 25.1449 14.3147 25.1767 17.3056L27.1766 17.2844ZM29.0282 9.95526C30.2923 7.70794 32.028 5.93012 34.2479 4.60941L33.2253 2.89059C30.7053 4.38988 28.7209 6.42206 27.2851 8.97474L29.0282 9.95526ZM34.2559 4.60461C36.4666 3.26139 38.8815 2.59 41.5216 2.59V0.59C38.5218 0.59 35.7467 1.35861 33.2174 2.89538L34.2559 4.60461ZM41.5325 2.58994C44.109 2.56193 46.4762 3.20334 48.6555 4.51652L49.6877 2.80348C47.1871 1.29666 44.4543 0.558062 41.5108 0.590059L41.5325 2.58994ZM48.6603 4.51941C50.8761 5.83766 52.6282 7.64348 53.9245 9.95425L55.6688 8.97575C54.2051 6.36652 52.2071 4.30234 49.6829 2.80059L48.6603 4.51941ZM53.9245 9.95425C55.2162 12.2568 55.8666 14.8019 55.8666 17.61H57.8666C57.8666 14.4781 57.1371 11.5932 55.6688 8.97575L53.9245 9.95425ZM55.8666 17.61C55.8666 20.2264 55.222 22.6152 53.9353 24.797L55.658 25.813C57.1313 23.3148 57.8666 20.5736 57.8666 17.61H55.8666ZM53.9353 24.797C52.6431 26.9881 50.892 28.7261 48.6684 30.0208L49.6748 31.7492C52.1913 30.2839 54.1902 28.3019 55.658 25.813L53.9353 24.797ZM48.6637 30.0236C46.4737 31.3152 44.0915 31.9889 41.4999 32.0452L41.5434 34.0448C44.4717 33.9811 47.1896 33.2149 49.6796 31.7464L48.6637 30.0236ZM41.6566 25.27C43.307 25.27 44.736 24.6655 45.8845 23.4811L44.4487 22.0889C43.6772 22.8845 42.7663 23.27 41.6566 23.27V25.27ZM45.8737 23.4921C47.0827 22.2831 47.6408 20.7174 47.6065 18.8961L45.6068 18.9339C45.6325 20.2926 45.2305 21.3069 44.4595 22.0779L45.8737 23.4921ZM47.6066 18.915C47.6066 17.0838 47.0567 15.5127 45.8845 14.3039L44.4487 15.6961C45.1965 16.4673 45.6066 17.5062 45.6066 18.915H47.6066ZM45.8845 14.3039C44.736 13.1195 43.307 12.515 41.6566 12.515V14.515C42.7663 14.515 43.6772 14.9005 44.4487 15.6961L45.8845 14.3039ZM41.6566 12.515C40.0063 12.515 38.5772 13.1195 37.4287 14.3039L38.8645 15.6961C39.636 14.9005 40.547 14.515 41.6566 14.515V12.515ZM37.4287 14.3039C36.2565 15.5127 35.7066 17.0838 35.7066 18.915H37.7066C37.7066 17.5062 38.1167 16.4673 38.8645 15.6961L37.4287 14.3039ZM35.7066 18.915C35.7066 20.722 36.26 22.2759 37.4287 23.4811L38.8645 22.0889C38.1133 21.3141 37.7066 20.288 37.7066 18.915H35.7066ZM37.4287 23.4811C38.5772 24.6655 40.0063 25.27 41.6566 25.27V23.27C40.547 23.27 39.636 22.8845 38.8645 22.0889L37.4287 23.4811ZM65.8612 30.75L65.3236 31.5933L65.3312 31.598L65.8612 30.75ZM60.4162 24.675L59.5113 25.1008L59.5144 25.1072L59.5175 25.1136L60.4162 24.675ZM60.0562 5.82L61.0049 6.13623L60.0562 5.82ZM70.4062 3.435L69.6039 4.03201V4.03201L70.4062 3.435ZM71.4862 12.615L72.4754 12.7616L72.4761 12.7564L71.4862 12.615ZM71.8912 20.49L72.7907 20.0531V20.0531L71.8912 20.49ZM77.1112 20.49L76.2117 20.0531L76.2066 20.0636L76.2017 20.0742L77.1112 20.49ZM77.5162 12.615L76.5262 12.7564L76.527 12.7615L77.5162 12.615ZM78.5962 3.435L79.3984 4.03201L78.5962 3.435ZM88.9462 5.82L89.8949 5.50377L88.9462 5.82ZM88.5412 24.675L87.6405 24.2405L87.6383 24.2451L88.5412 24.675ZM83.1412 30.75L83.6712 31.598L83.6787 31.5932L83.1412 30.75ZM74.5012 32C71.2931 32 68.6046 31.2854 66.3912 29.902L65.3312 31.598C67.9177 33.2146 70.9892 34 74.5012 34V32ZM66.3987 29.9068C64.1516 28.4742 62.4628 26.5882 61.3148 24.2364L59.5175 25.1136C60.8296 27.8018 62.7707 29.9658 65.3236 31.5932L66.3987 29.9068ZM61.321 24.2492C60.1877 21.8409 59.6162 19.2125 59.6162 16.35H57.6162C57.6162 19.4875 58.2447 22.4091 59.5113 25.1008L61.321 24.2492ZM59.6162 16.35C59.6162 12.2812 60.0887 8.88473 61.0049 6.13623L59.1075 5.50377C58.1037 8.51527 57.6162 12.1388 57.6162 16.35H59.6162ZM61.0049 6.13623C61.4396 4.83204 62.0517 3.94127 62.7915 3.37309C63.5243 2.81033 64.4653 2.5 65.6812 2.5V0.499998C64.107 0.499998 62.7156 0.909662 61.5733 1.7869C60.4381 2.65873 59.6328 3.92796 59.1075 5.50377L61.0049 6.13623ZM65.6812 2.5C67.6784 2.5 68.8958 3.08041 69.6039 4.03201L71.2084 2.83799C69.9966 1.20959 68.064 0.499998 65.6812 0.499998V2.5ZM69.6039 4.03201C70.414 5.12059 70.8462 6.49109 70.8462 8.205H72.8462C72.8462 6.13891 72.3183 4.32941 71.2084 2.83799L69.6039 4.03201ZM70.8462 8.205C70.8462 9.40468 70.7317 10.8255 70.4962 12.4736L72.4761 12.7564C72.7207 11.0445 72.8462 9.52532 72.8462 8.205H70.8462ZM70.497 12.4685C70.2528 14.1165 70.1262 15.5339 70.1262 16.71H72.1262C72.1262 15.6661 72.2395 14.3535 72.4754 12.7615L70.497 12.4685ZM70.1262 16.71C70.1262 18.2932 70.4007 19.7101 70.9917 20.9269L72.7907 20.0531C72.3617 19.1699 72.1262 18.0668 72.1262 16.71H70.1262ZM70.9917 20.9269C71.3182 21.5992 71.7855 22.1509 72.4095 22.5274C73.0303 22.9021 73.7425 23.065 74.5012 23.065V21.065C74.0299 21.065 73.692 20.9654 73.4428 20.8151C73.1968 20.6666 72.9741 20.4308 72.7907 20.0531L70.9917 20.9269ZM74.5012 23.065C75.2698 23.065 75.991 22.9042 76.6153 22.5274C77.2454 22.1472 77.7088 21.588 78.0206 20.9058L76.2017 20.0742C76.0336 20.442 75.822 20.6703 75.582 20.8151C75.3363 20.9633 74.9925 21.065 74.5012 21.065V23.065ZM78.0107 20.9269C78.6017 19.7101 78.8762 18.2932 78.8762 16.71H76.8762C76.8762 18.0668 76.6407 19.1699 76.2117 20.0531L78.0107 20.9269ZM78.8762 16.71C78.8762 15.5339 78.7495 14.1165 78.5054 12.4685L76.527 12.7615C76.7628 14.3535 76.8762 15.6661 76.8762 16.71H78.8762ZM78.5061 12.4736C78.2707 10.8255 78.1562 9.40468 78.1562 8.205H76.1562C76.1562 9.52532 76.2817 11.0445 76.5262 12.7564L78.5061 12.4736ZM78.1562 8.205C78.1562 6.49109 78.5883 5.12059 79.3984 4.03201L77.7939 2.83799C76.684 4.32941 76.1562 6.13891 76.1562 8.205H78.1562ZM79.3984 4.03201C80.1066 3.08041 81.324 2.5 83.3212 2.5V0.499998C80.9384 0.499998 79.0058 1.20959 77.7939 2.83799L79.3984 4.03201ZM83.3212 2.5C84.537 2.5 85.4781 2.81033 86.2108 3.37309C86.9506 3.94127 87.5628 4.83204 87.9975 6.13623L89.8949 5.50377C89.3696 3.92796 88.5642 2.65873 87.429 1.7869C86.2868 0.909662 84.8953 0.499998 83.3212 0.499998V2.5ZM87.9975 6.13623C88.9137 8.88473 89.3862 12.2812 89.3862 16.35H91.3862C91.3862 12.1388 90.8987 8.51527 89.8949 5.50377L87.9975 6.13623ZM89.3862 16.35C89.3862 19.2087 88.8012 21.8341 87.6405 24.2405L89.4419 25.1095C90.7411 22.4159 91.3862 19.4913 91.3862 16.35H89.3862ZM87.6383 24.2451C86.5206 26.5923 84.8488 28.4755 82.6036 29.9068L83.6787 31.5932C86.2335 29.9645 88.1618 27.7977 89.444 25.1049L87.6383 24.2451ZM82.6112 29.902C80.3977 31.2854 77.7092 32 74.5012 32V34C78.0131 34 81.0846 33.2146 83.6712 31.598L82.6112 29.902ZM92.9759 28.815L92.0203 29.1098L92.0233 29.119L92.9759 28.815ZM93.2009 10.005L92.2778 9.62038L92.2756 9.62593L93.2009 10.005ZM97.9709 3.93L98.5544 4.74222L98.5618 4.73676L97.9709 3.93ZM112.461 3.165L111.998 4.05141L112.008 4.05675L112.461 3.165ZM117.231 7.575L116.377 8.0954L116.383 8.105L117.231 7.575ZM117.276 21.57L118.137 22.0787L117.276 21.57ZM112.731 25.98L113.19 26.8686L112.731 25.98ZM102.201 26.565L102.576 25.6379L100.881 24.9529L101.218 26.7493L102.201 26.565ZM108.996 19.275L109.703 19.9821L108.996 19.275ZM108.996 13.695L108.276 14.3886L108.289 14.4022L108.302 14.4153L108.996 13.695ZM103.416 13.695L104.11 14.4153L104.116 14.4088L104.123 14.4021L103.416 13.695ZM103.416 19.275L102.709 19.9821L102.715 19.9888L102.722 19.9953L103.416 19.275ZM98.0159 32.045C96.9906 32.045 96.1917 31.7569 95.5538 31.2215C94.901 30.6737 94.3406 29.8019 93.9286 28.511L92.0233 29.119C92.5113 30.6481 93.2408 31.8913 94.2681 32.7535C95.3102 33.6281 96.5812 34.045 98.0159 34.045V32.045ZM93.9315 28.5202C93.1015 25.8298 92.6709 22.3385 92.6709 18.015H90.6709C90.6709 22.4515 91.1104 26.1602 92.0204 29.1098L93.9315 28.5202ZM92.6709 18.015C92.6709 15.2872 93.1585 12.7467 94.1263 10.3841L92.2756 9.62593C91.2034 12.2432 90.6709 15.0428 90.6709 18.015H92.6709ZM94.124 10.3896C95.1057 8.03353 96.5814 6.15937 98.5543 4.74218L97.3875 3.11781C95.1005 4.76062 93.3962 6.93647 92.2779 9.62038L94.124 10.3896ZM98.5618 4.73676C100.494 3.32154 102.873 2.59 105.756 2.59V0.59C102.518 0.59 99.7077 1.41846 97.3801 3.12323L98.5618 4.73676ZM105.756 2.59C108.069 2.59 110.143 3.08222 111.998 4.05135L112.924 2.27865C110.759 1.14777 108.363 0.59 105.756 0.59V2.59ZM112.008 4.05675C113.853 4.99288 115.304 6.33447 116.377 8.09537L118.085 7.05463C116.818 4.97553 115.089 3.37712 112.913 2.27325L112.008 4.05675ZM116.383 8.105C117.473 9.84851 118.031 11.8806 118.031 14.235H120.031C120.031 11.5494 119.389 9.14149 118.079 7.045L116.383 8.105ZM118.031 14.235C118.031 17.0129 117.473 19.2712 116.415 21.0613L118.137 22.0787C119.419 19.9088 120.031 17.2771 120.031 14.235H118.031ZM116.415 21.0613C115.331 22.8959 113.949 24.2261 112.272 25.0914L113.19 26.8686C115.233 25.8139 116.881 24.2041 118.137 22.0787L116.415 21.0613ZM112.272 25.0914C110.552 25.979 108.745 26.42 106.836 26.42V28.42C109.067 28.42 111.189 27.901 113.19 26.8686L112.272 25.0914ZM106.836 26.42C105.271 26.42 103.855 26.1549 102.576 25.6379L101.826 27.4921C103.367 28.1151 105.041 28.42 106.836 28.42V26.42ZM101.218 26.7493C101.395 27.6929 101.471 28.3548 101.471 28.77H103.471C103.471 28.1652 103.367 27.3571 103.184 26.3807L101.218 26.7493ZM101.471 28.77C101.471 30.0301 101.145 30.7941 100.665 31.2547C100.177 31.7227 99.3569 32.045 98.0159 32.045V34.045C99.645 34.045 101.052 33.6548 102.05 32.6978C103.055 31.7334 103.471 30.3599 103.471 28.77H101.471ZM106.206 21.445C107.557 21.445 108.74 20.9451 109.703 19.9821L108.289 18.5679C107.692 19.1648 107.014 19.445 106.206 19.445V21.445ZM109.703 19.9821C110.682 19.0034 111.211 17.8257 111.211 16.485H109.211C109.211 17.2443 108.93 17.9266 108.289 18.5679L109.703 19.9821ZM111.211 16.485C111.211 15.1209 110.686 13.9345 109.69 12.9747L108.302 14.4153C108.926 15.0155 109.211 15.6891 109.211 16.485H111.211ZM109.716 13.0014C108.756 12.0047 107.57 11.48 106.206 11.48V13.48C107.002 13.48 107.675 13.7653 108.276 14.3886L109.716 13.0014ZM106.206 11.48C104.865 11.48 103.688 12.0091 102.709 12.9879L104.123 14.4021C104.764 13.7609 105.447 13.48 106.206 13.48V11.48ZM102.722 12.9747C101.726 13.9345 101.201 15.1209 101.201 16.485H103.201C103.201 15.6891 103.486 15.0155 104.11 14.4153L102.722 12.9747ZM101.201 16.485C101.201 17.8257 101.73 19.0034 102.709 19.9821L104.123 18.5679C103.482 17.9266 103.201 17.2443 103.201 16.485H101.201ZM102.722 19.9953C103.704 20.9407 104.878 21.445 106.206 21.445V19.445C105.434 19.445 104.748 19.1693 104.11 18.5547L102.722 19.9953ZM133.109 24.855L132.113 24.7684L132.029 25.7348L132.993 25.8481L133.109 24.855ZM136.664 26.025L136.083 26.8387L136.1 26.8504L136.116 26.8615L136.664 26.025ZM136.619 31.56L136.065 30.728L136.058 30.7323L136.052 30.7368L136.619 31.56ZM133.469 32.685L133.567 33.6803L133.579 33.6791L133.59 33.6776L133.469 32.685ZM123.974 32.685L123.853 33.6776L123.865 33.6791L123.877 33.6803L123.974 32.685ZM120.824 31.56L121.392 30.7368L120.824 31.56ZM120.734 26.07L121.31 26.8878L121.316 26.8837L120.734 26.07ZM124.154 24.855L124.299 25.8445L125.232 25.7085L125.151 24.7691L124.154 24.855ZM124.109 10.365L125.107 10.4326L125.172 9.46963L124.212 9.37031L124.109 10.365ZM120.014 9.105L119.46 9.93705L120.014 9.105ZM119.969 2.94L120.536 3.76404L119.969 2.94ZM133.874 1.725L133.985 0.731113L133.874 1.725ZM137.339 2.94L136.773 3.76404L136.779 3.76809L136.785 3.77205L137.339 2.94ZM137.294 9.105L136.751 8.26535L136.74 8.27295L137.294 9.105ZM133.154 10.365L133.053 9.37013L132.069 9.47023L132.159 10.4555L133.154 10.365ZM132.993 25.8481C134.431 26.0174 135.432 26.3733 136.083 26.8387L137.246 25.2113C136.217 24.4767 134.848 24.0526 133.226 23.8619L132.993 25.8481ZM136.116 26.8615C136.642 27.2059 136.969 27.7653 136.969 28.77H138.969C138.969 27.2547 138.427 25.9841 137.212 25.1885L136.116 26.8615ZM136.969 28.77C136.969 29.7596 136.637 30.3463 136.065 30.728L137.174 32.3921C138.402 31.5737 138.969 30.3004 138.969 28.77H136.969ZM136.052 30.7368C135.336 31.2304 134.446 31.5585 133.348 31.6924L133.59 33.6776C134.953 33.5115 136.163 33.0896 137.187 32.3832L136.052 30.7368ZM133.372 31.6897C132.187 31.8053 130.633 31.865 128.699 31.865V33.865C130.666 33.865 132.291 33.8047 133.567 33.6803L133.372 31.6897ZM128.699 31.865C126.796 31.865 125.257 31.8054 124.072 31.6897L123.877 33.6803C125.152 33.8046 126.763 33.865 128.699 33.865V31.865ZM124.095 31.6924C122.998 31.5585 122.108 31.2304 121.392 30.7368L120.257 32.3832C121.281 33.0896 122.491 33.5115 123.853 33.6776L124.095 31.6924ZM121.392 30.7368C120.847 30.361 120.519 29.7735 120.519 28.77H118.519C118.519 30.2865 119.062 31.5589 120.257 32.3832L121.392 30.7368ZM120.519 28.77C120.519 27.7769 120.831 27.2248 121.31 26.8878L120.159 25.2522C119.018 26.0552 118.519 27.3031 118.519 28.77H120.519ZM121.316 26.8837C121.984 26.4063 122.956 26.0404 124.299 25.8445L124.01 23.8655C122.473 24.0896 121.165 24.5337 120.153 25.2563L121.316 26.8837ZM125.151 24.7691C125.004 23.0722 124.929 20.6161 124.929 17.385H122.929C122.929 20.6339 123.004 23.1578 123.158 24.9409L125.151 24.7691ZM124.929 17.385C124.929 14.4853 124.989 12.1705 125.107 10.4326L123.112 10.2974C122.99 12.0995 122.929 14.4647 122.929 17.385H124.929ZM124.212 9.37031C122.564 9.19975 121.375 8.81042 120.569 8.27295L119.46 9.93705C120.633 10.7196 122.175 11.1703 124.007 11.3597L124.212 9.37031ZM120.569 8.27295C119.912 7.83479 119.529 7.14701 119.529 6H117.529C117.529 7.67299 118.137 9.05521 119.46 9.93705L120.569 8.27295ZM119.529 6C119.529 4.87959 119.9 4.20119 120.536 3.76404L119.403 2.11596C118.119 2.99881 117.529 4.36041 117.529 6H119.529ZM120.536 3.76404C121.339 3.21174 122.331 2.85372 123.545 2.71888L123.324 0.731113C121.838 0.896273 120.52 1.34825 119.403 2.11596L120.536 3.76404ZM123.545 2.71888C124.844 2.57456 126.543 2.5 128.654 2.5V0.499998C126.506 0.499998 124.725 0.575434 123.324 0.731113L123.545 2.71888ZM128.654 2.5C130.766 2.5 132.465 2.57456 133.764 2.71888L133.985 0.731113C132.584 0.575434 130.803 0.499998 128.654 0.499998V2.5ZM133.764 2.71888C134.978 2.85372 135.97 3.21174 136.773 3.76404L137.906 2.11596C136.789 1.34825 135.471 0.896273 133.985 0.731113L133.764 2.71888ZM136.785 3.77205C137.449 4.21461 137.824 4.89229 137.824 6H139.824C139.824 4.3477 139.21 2.98538 137.894 2.10795L136.785 3.77205ZM137.824 6C137.824 7.13439 137.437 7.82178 136.751 8.26543L137.838 9.94457C139.192 9.06821 139.824 7.68561 139.824 6H137.824ZM136.74 8.27295C135.936 8.80874 134.735 9.1991 133.053 9.37013L133.256 11.3599C135.114 11.1709 136.673 10.7213 137.849 9.93705L136.74 8.27295ZM132.159 10.4555C132.304 12.0604 132.379 14.3649 132.379 17.385H134.379C134.379 14.3451 134.304 11.9696 134.15 10.2745L132.159 10.4555ZM132.379 17.385C132.379 20.2766 132.29 22.736 132.113 24.7684L134.106 24.9416C134.289 22.834 134.379 20.3134 134.379 17.385H132.379ZM161.207 25.8L160.891 26.7487L160.9 26.7517L160.909 26.7545L161.207 25.8ZM161.297 31.83L160.805 30.9594L161.297 31.83ZM143.252 29.94L142.69 30.7669L142.694 30.7695L143.252 29.94ZM140.327 9.51L141.247 9.90257L140.327 9.51ZM145.007 3.66L144.442 2.83525L144.436 2.83909L145.007 3.66ZM161.252 3.39L160.645 4.18482L160.654 4.19174L161.252 3.39ZM163.097 10.275L163.951 10.7949L163.956 10.787L163.961 10.7789L163.097 10.275ZM161.207 11.895L160.786 10.988L160.773 10.9941L160.76 11.0006L161.207 11.895ZM158.417 12.435L158.38 13.4343L158.399 13.435H158.417V12.435ZM157.202 12.39L157.078 13.3823L157.121 13.3877L157.165 13.3893L157.202 12.39ZM152.477 13.2L152.992 14.0575L153.002 14.0513L153.012 14.0448L152.477 13.2ZM150.632 15.72L149.672 15.4419L149.283 16.7854L150.68 16.7189L150.632 15.72ZM159.947 15.9L160.149 14.9205L160.143 14.9194L159.947 15.9ZM162.287 17.115L161.544 17.784L161.553 17.794L161.562 17.8037L162.287 17.115ZM162.332 21.345L163.058 22.0327L163.067 22.0235L163.075 22.014L162.332 21.345ZM159.902 22.515L159.711 21.5334L159.702 21.5352L159.693 21.5372L159.902 22.515ZM150.992 22.74L151.048 21.7415L149.375 21.6486L150.087 23.1651L150.992 22.74ZM157.247 25.62L157.164 24.6235L157.15 24.6246L157.137 24.6261L157.247 25.62ZM160.909 26.7545C161.485 26.9344 161.828 27.1843 162.032 27.4523C162.233 27.7162 162.367 28.0863 162.367 28.635H164.367C164.367 27.7437 164.142 26.9213 163.623 26.2402C163.107 25.5632 162.37 25.1156 161.505 24.8455L160.909 26.7545ZM162.367 28.635C162.367 29.5553 161.936 30.32 160.805 30.9594L161.789 32.7006C163.418 31.7801 164.367 30.4147 164.367 28.635H162.367ZM160.805 30.9594C159.669 31.6018 157.514 32 154.142 32V34C157.55 34 160.166 33.6182 161.789 32.7006L160.805 30.9594ZM154.142 32C150.079 32 146.651 31.0226 143.811 29.1105L142.694 30.7695C145.914 32.9374 149.745 34 154.142 34V32ZM143.814 29.1131C141.232 27.357 139.752 23.7424 139.752 17.79H137.752C137.752 23.9576 139.272 28.443 142.69 30.7669L143.814 29.1131ZM139.752 17.79C139.752 14.8456 140.257 12.2218 141.247 9.90257L139.407 9.11744C138.297 11.7182 137.752 14.6144 137.752 17.79H139.752ZM141.247 9.90257C142.228 7.60428 143.672 5.80708 145.578 4.48091L144.436 2.83909C142.202 4.39292 140.526 6.49571 139.407 9.11744L141.247 9.90257ZM145.573 4.48473C147.477 3.17919 149.835 2.5 152.702 2.5V0.499998C149.509 0.499998 146.738 1.26081 144.442 2.83527L145.573 4.48473ZM152.702 2.5C156.71 2.5 159.271 3.13555 160.645 4.18476L161.859 2.59523C159.933 1.12444 156.795 0.499998 152.702 0.499998V2.5ZM160.654 4.19174C162.093 5.26392 162.727 6.49915 162.727 7.935H164.727C164.727 5.77085 163.712 3.97608 161.85 2.58825L160.654 4.19174ZM162.727 7.935C162.727 8.59939 162.563 9.20531 162.233 9.77113L163.961 10.7789C164.471 9.90469 164.727 8.95061 164.727 7.935H162.727ZM162.243 9.75505C161.94 10.2522 161.474 10.6688 160.786 10.988L161.628 12.802C162.621 12.3412 163.414 11.6778 163.951 10.7949L162.243 9.75505ZM160.76 11.0006C160.224 11.2684 159.462 11.435 158.417 11.435V13.435C159.652 13.435 160.75 13.2416 161.654 12.7894L160.76 11.0006ZM158.454 11.4357L157.239 11.3907L157.165 13.3893L158.38 13.4343L158.454 11.4357ZM157.326 11.3977C157.024 11.3599 156.63 11.345 156.167 11.345V13.345C156.604 13.345 156.9 13.3601 157.078 13.3823L157.326 11.3977ZM156.167 11.345C154.501 11.345 153.06 11.6471 151.942 12.3552L153.012 14.0448C153.694 13.6129 154.714 13.345 156.167 13.345V11.345ZM151.963 12.3425C150.817 13.0296 150.062 14.0936 149.672 15.4419L151.593 15.9981C151.862 15.0664 152.337 14.4504 152.992 14.0575L151.963 12.3425ZM150.68 16.7189C151.927 16.6595 153.051 16.63 154.052 16.63V14.63C153.013 14.63 151.857 14.6605 150.585 14.7211L150.68 16.7189ZM154.052 16.63C157.106 16.63 158.967 16.7237 159.751 16.8806L160.143 14.9194C159.128 14.7163 157.058 14.63 154.052 14.63V16.63ZM159.745 16.8795C160.617 17.0589 161.183 17.3833 161.544 17.784L163.03 16.446C162.311 15.6467 161.317 15.1611 160.149 14.9205L159.745 16.8795ZM161.562 17.8037C161.96 18.2224 162.142 18.6825 162.142 19.23H164.142C164.142 18.1575 163.754 17.2076 163.012 16.4263L161.562 17.8037ZM162.142 19.23C162.142 19.7939 161.963 20.2604 161.589 20.676L163.075 22.014C163.781 21.2296 164.142 20.2861 164.142 19.23H162.142ZM161.606 20.6573C161.257 21.0261 160.666 21.3477 159.711 21.5334L160.093 23.4966C161.298 23.2623 162.328 22.8039 163.058 22.0327L161.606 20.6573ZM159.693 21.5372C158.979 21.6902 157.058 21.785 153.782 21.785V23.785C156.986 23.785 159.146 23.6998 160.112 23.4928L159.693 21.5372ZM153.782 21.785C152.462 21.785 151.557 21.7698 151.048 21.7415L150.937 23.7385C151.507 23.7702 152.462 23.785 153.782 23.785V21.785ZM150.087 23.1651C150.631 24.3238 151.434 25.2301 152.5 25.8367C153.557 26.4378 154.81 26.71 156.212 26.71V24.71C155.064 24.71 154.173 24.4872 153.489 24.0983C152.815 23.7149 152.283 23.1362 151.897 22.3149L150.087 23.1651ZM156.212 26.71C156.429 26.71 156.834 26.672 157.358 26.6139L157.137 24.6261C156.58 24.688 156.295 24.71 156.212 24.71V26.71ZM157.33 26.6165C158.033 26.558 158.619 26.53 159.092 26.53V24.53C158.546 24.53 157.901 24.562 157.164 24.6235L157.33 26.6165ZM159.092 26.53C159.905 26.53 160.492 26.6156 160.891 26.7487L161.523 24.8513C160.843 24.6244 160.019 24.53 159.092 24.53V26.53Z" fill="black" fill-opacity="0.72" />
</svg>
    